<svg version="1.1" id="Layer_1" xmlns="http://www.w3.org/2000/svg" xmlns:xlink="http://www.w3.org/1999/xlink" x="0px" y="0px"
	 width="100%" viewBox="0 0 147 138" enable-background="new 0 0 147 138" xml:space="preserve">
<path fill="#000000" opacity="1.000000" stroke="none" 
	d="
M1.000000,59.000000 
	C1.000000,39.333332 1.000000,20.166666 1.000000,1.000000 
	C50.000000,1.000000 99.000000,1.000000 148.000000,1.000000 
	C148.000000,47.000000 148.000000,93.000000 148.000000,139.000000 
	C99.000000,139.000000 50.000000,139.000000 1.000000,139.000000 
	C1.000000,112.500000 1.000000,86.000000 1.000000,59.000000 
M62.994011,15.006704 
	C62.994011,15.006704 63.018093,15.034166 62.290150,15.071774 
	C60.868572,16.051352 59.446995,17.030928 57.525486,18.133492 
	C57.360481,18.180647 57.195473,18.227800 56.412350,18.383671 
	C55.315971,19.272102 54.219597,20.160532 52.400089,21.155802 
	C44.944016,25.468946 37.487942,29.782091 29.298197,33.989727 
	C26.857588,36.012909 24.416981,38.036095 21.614452,40.730183 
	C21.483034,42.488056 21.351616,44.245930 21.162998,46.936993 
	C21.098581,52.352631 21.034164,57.768265 20.218224,63.556217 
	C20.142429,74.183960 20.053703,84.811684 20.032522,95.439537 
	C20.031555,95.924492 20.639168,96.410667 21.118593,97.630318 
	C22.368425,101.924133 24.199398,105.400917 28.959526,107.174629 
	C33.139362,108.732109 36.881248,111.486633 40.777718,113.778496 
	C49.993263,119.199020 59.057793,124.893852 68.442558,130.001572 
	C72.992592,132.477936 78.115623,132.151947 82.743912,129.531006 
	C96.113052,121.960220 109.521416,114.449425 122.692413,106.545212 
	C125.578674,104.813110 127.544563,101.547371 129.955948,98.589401 
	C129.955948,98.589401 129.953003,98.190323 130.765015,97.780922 
	C130.836395,79.994171 130.915634,62.207436 130.937408,44.420631 
	C130.938004,43.937309 130.318787,43.453228 129.888336,42.345432 
	C129.297058,41.861134 128.705765,41.376835 128.010406,40.913212 
	C128.010406,40.913212 128.113159,40.913670 128.105881,40.447105 
	C128.105881,40.447105 127.988625,39.995457 127.957611,39.332909 
	C127.347511,38.455219 126.737411,37.577534 125.693611,36.180607 
	C111.793686,28.094284 97.955521,19.898504 83.951187,11.997249 
	C80.371513,9.977596 76.496567,7.370537 71.383842,10.039403 
	C70.919983,10.357807 70.456116,10.676212 69.413490,11.132077 
	C68.962601,11.486960 68.511719,11.841844 67.393639,12.090569 
	C66.614159,12.734772 65.834686,13.378975 64.515945,14.143618 
	C64.334274,14.173901 64.152596,14.204184 63.523029,14.282799 
	C63.244839,14.448518 63.080433,14.691354 62.994011,15.006704 
z"/>
<path fill="#381B65" opacity="1.000000" stroke="none" 
	d="
M129.934296,98.987900 
	C127.544563,101.547371 125.578674,104.813110 122.692413,106.545212 
	C109.521416,114.449425 96.113052,121.960220 82.743912,129.531006 
	C78.115623,132.151947 72.992592,132.477936 68.442558,130.001572 
	C59.057793,124.893852 49.993263,119.199020 40.777718,113.778496 
	C36.881248,111.486633 33.139362,108.732109 28.959526,107.174629 
	C24.199398,105.400917 22.368425,101.924133 21.051113,97.290695 
	C20.983633,96.951073 20.927460,96.945976 21.218128,96.985107 
	C21.704283,97.021614 21.899767,97.018990 22.389723,96.980995 
	C23.414703,96.639641 24.145214,96.333664 25.033966,96.333397 
	C27.851513,99.278229 30.124933,102.553810 33.239441,104.442139 
	C44.472382,111.252670 56.118721,117.382050 67.341522,124.208328 
	C72.738579,127.491096 77.423576,127.505836 82.749855,124.317253 
	C94.451492,117.312035 106.294762,110.540993 118.140305,103.779633 
	C123.630302,100.645981 125.967117,96.074829 125.886536,89.794136 
	C125.722054,76.975418 126.054405,64.147400 125.714325,51.335640 
	C125.612900,47.514866 123.955498,43.735397 123.245865,39.693092 
	C124.362923,38.532738 125.245117,37.616291 126.127304,36.699844 
	C126.737411,37.577534 127.347511,38.455219 127.814651,39.762054 
	C127.818848,40.432026 127.966003,40.672848 128.113159,40.913670 
	C128.113159,40.913670 128.010406,40.913212 128.014877,41.380859 
	C128.011566,59.418819 127.957329,76.989464 128.080139,94.558861 
	C128.090500,96.039452 129.288208,97.511749 129.934296,98.987900 
z"/>
<path fill="#371B64" opacity="1.000000" stroke="none" 
	d="
M125.910461,36.440224 
	C125.245117,37.616291 124.362923,38.532738 122.954750,39.529533 
	C120.687576,38.345146 119.040680,36.918175 117.189651,35.842464 
	C106.555031,29.662252 95.715614,23.817947 85.263145,17.346891 
	C78.826515,13.362020 72.736267,12.377649 66.103264,15.982798 
	C66.049660,15.074165 66.028870,14.554354 66.309250,13.979990 
	C67.093887,13.349201 67.577362,12.772964 68.060829,12.196726 
	C68.511719,11.841844 68.962601,11.486960 69.989235,11.042385 
	C71.039467,10.668399 71.513954,10.384105 71.988441,10.099810 
	C76.496567,7.370537 80.371513,9.977596 83.951187,11.997249 
	C97.955521,19.898504 111.793686,28.094284 125.910461,36.440224 
z"/>
<path fill="#331563" opacity="1.000000" stroke="none" 
	d="
M66.008072,14.034542 
	C66.028870,14.554354 66.049660,15.074165 65.883995,16.224379 
	C53.824062,23.650322 41.950592,30.445864 30.056240,36.847820 
	C30.034193,35.667900 30.033030,34.881569 30.031866,34.095234 
	C37.487942,29.782091 44.944016,25.468946 53.101860,21.083210 
	C54.879246,20.098732 55.954857,19.186844 57.030468,18.274956 
	C57.195473,18.227800 57.360481,18.180647 58.127861,18.026447 
	C60.159519,16.957655 61.588806,15.995911 63.018093,15.034166 
	C63.018093,15.034166 62.994011,15.006704 63.199341,14.918666 
	C63.642784,14.678788 63.831532,14.480068 63.970913,14.234467 
	C64.152596,14.204184 64.334274,14.173901 65.023651,14.083109 
	C65.531357,14.022600 66.008072,14.034542 66.008072,14.034542 
z"/>
<path fill="#260C50" opacity="1.000000" stroke="none" 
	d="
M129.945129,98.788651 
	C129.288208,97.511749 128.090500,96.039452 128.080139,94.558861 
	C127.957329,76.989464 128.011566,59.418819 128.066925,41.370522 
	C128.705765,41.376835 129.297058,41.861134 129.802002,43.010902 
	C129.723358,44.432285 129.731064,45.188198 129.579758,46.044220 
	C129.379440,46.262344 129.270416,46.415363 129.309845,46.491619 
	C129.416306,46.697495 129.585968,46.870689 129.774063,47.519897 
	C129.862717,64.718735 129.907852,81.454529 129.953003,98.190323 
	C129.953003,98.190323 129.955948,98.589401 129.945129,98.788651 
z"/>
<path fill="#351465" opacity="1.000000" stroke="none" 
	d="
M20.969748,63.183903 
	C21.034164,57.768265 21.098581,52.352631 21.404707,46.209038 
	C22.059975,43.688194 22.473536,41.895306 23.253038,40.085396 
	C24.447758,40.451431 25.276533,40.834496 26.063974,41.511551 
	C25.543919,42.883533 25.065201,43.961525 24.208157,45.247711 
	C23.901327,49.310707 23.972822,53.165501 24.137238,57.409691 
	C24.168200,58.858559 24.106245,59.918030 23.754589,61.281395 
	C23.319765,71.065369 23.174643,80.545441 22.739668,89.722778 
	C22.301807,85.321213 22.213961,81.219101 21.989395,77.124481 
	C21.749842,72.756561 21.381096,68.395729 21.017195,63.822952 
	C20.965637,63.614109 20.969748,63.183903 20.969748,63.183903 
z"/>
<path fill="#E6DCFE" opacity="1.000000" stroke="none" 
	d="
M130.359009,97.985626 
	C129.907852,81.454529 129.862717,64.718735 129.873215,47.242416 
	C129.865479,46.315968 129.802124,46.130039 129.738770,45.944111 
	C129.731064,45.188198 129.723358,44.432285 129.852127,43.322937 
	C130.318787,43.453228 130.938004,43.937309 130.937408,44.420631 
	C130.915634,62.207436 130.836395,79.994171 130.359009,97.985626 
z"/>
<path fill="#817196" opacity="1.000000" stroke="none" 
	d="
M20.593987,63.370060 
	C20.969748,63.183903 20.965637,63.614109 20.990337,64.288567 
	C20.985846,75.624008 20.956654,86.284988 20.927460,96.945976 
	C20.927460,96.945976 20.983633,96.951073 20.973482,96.923676 
	C20.639168,96.410667 20.031555,95.924492 20.032522,95.439537 
	C20.053703,84.811684 20.142429,74.183960 20.593987,63.370060 
z"/>
<path fill="#321B57" opacity="1.000000" stroke="none" 
	d="
M26.105310,41.217560 
	C25.276533,40.834496 24.447758,40.451431 23.025913,40.075462 
	C22.432842,40.082558 21.976370,40.059277 21.976372,40.059280 
	C24.416981,38.036095 26.857588,36.012909 29.665031,34.042480 
	C30.033030,34.881569 30.034193,35.667900 29.955647,37.053230 
	C29.656786,37.893291 29.384310,38.014645 28.835026,38.017105 
	C28.390558,38.342720 28.169575,38.667522 27.825403,39.259415 
	C27.169914,40.090187 26.637613,40.653873 26.105310,41.217560 
z"/>
<path fill="#301853" opacity="1.000000" stroke="none" 
	d="
M62.654121,15.052969 
	C61.588806,15.995911 60.159519,16.957655 58.377823,17.964954 
	C59.446995,17.030928 60.868572,16.051352 62.654121,15.052969 
z"/>
<path fill="#210846" opacity="1.000000" stroke="none" 
	d="
M21.795410,40.394730 
	C21.976370,40.059277 22.432842,40.082558 22.659969,40.092491 
	C22.473536,41.895306 22.059975,43.688194 21.433308,45.742439 
	C21.351616,44.245930 21.483034,42.488056 21.795410,40.394730 
z"/>
<path fill="#301853" opacity="1.000000" stroke="none" 
	d="
M56.721409,18.329311 
	C55.954857,19.186844 54.879246,20.098732 53.463428,21.029793 
	C54.219597,20.160532 55.315971,19.272102 56.721409,18.329311 
z"/>
<path fill="#301853" opacity="1.000000" stroke="none" 
	d="
M66.309250,13.979990 
	C66.008072,14.034542 65.531357,14.022600 65.293282,14.022889 
	C65.834686,13.378975 66.614159,12.734772 67.727234,12.143647 
	C67.577362,12.772964 67.093887,13.349201 66.309250,13.979990 
z"/>
<path fill="#301853" opacity="1.000000" stroke="none" 
	d="
M71.686142,10.069607 
	C71.513954,10.384105 71.039467,10.668399 70.278618,10.973655 
	C70.456116,10.676212 70.919983,10.357807 71.686142,10.069607 
z"/>
<path fill="#260C50" opacity="1.000000" stroke="none" 
	d="
M128.109528,40.680389 
	C127.966003,40.672848 127.818848,40.432026 127.830154,40.093330 
	C127.988625,39.995457 128.105881,40.447105 128.109528,40.680389 
z"/>
<path fill="#301853" opacity="1.000000" stroke="none" 
	d="
M63.746971,14.258633 
	C63.831532,14.480068 63.642784,14.678788 63.217239,14.920967 
	C63.080433,14.691354 63.244839,14.448518 63.746971,14.258633 
z"/>
<path fill="#AC84F5" opacity="1.000000" stroke="none" 
	d="
M26.063974,41.511551 
	C26.637613,40.653873 27.169914,40.090187 28.064816,39.166950 
	C28.637781,38.543701 28.848148,38.279999 29.058514,38.016296 
	C29.384310,38.014645 29.656786,37.893291 29.976532,37.446815 
	C41.950592,30.445864 53.824062,23.650322 65.916801,16.613199 
	C72.736267,12.377649 78.826515,13.362020 85.263145,17.346891 
	C95.715614,23.817947 106.555031,29.662252 117.189651,35.842464 
	C119.040680,36.918175 120.687576,38.345146 122.719879,39.773438 
	C123.955498,43.735397 125.612900,47.514866 125.714325,51.335640 
	C126.054405,64.147400 125.722054,76.975418 125.886536,89.794136 
	C125.967117,96.074829 123.630302,100.645981 118.140305,103.779633 
	C106.294762,110.540993 94.451492,117.312035 82.749855,124.317253 
	C77.423576,127.505836 72.738579,127.491096 67.341522,124.208328 
	C56.118721,117.382050 44.472382,111.252670 33.239441,104.442139 
	C30.124933,102.553810 27.851513,99.278229 25.041496,96.050568 
	C24.663570,94.960258 24.436357,94.458504 24.240864,93.623039 
	C24.176132,92.856468 24.079681,92.423607 24.060974,91.663284 
	C24.082174,90.893974 24.025627,90.452103 24.075462,89.550674 
	C24.135992,79.719910 24.090141,70.348709 24.044291,60.977501 
	C24.106245,59.918030 24.168200,58.858559 24.212259,56.953255 
	C24.325069,52.418118 24.455774,48.728817 24.586479,45.039516 
	C25.065201,43.961525 25.543919,42.883533 26.063974,41.511551 
M44.096420,91.414864 
	C44.342377,91.639755 44.588333,91.864647 45.201038,92.711266 
	C46.241093,93.147102 47.351524,93.465103 48.309982,94.037560 
	C55.479328,98.319580 62.526737,102.817986 69.828445,106.858047 
	C71.787888,107.942230 75.076431,108.762306 76.761192,107.856155 
	C87.295189,102.190437 97.547554,96.001083 108.509460,89.414604 
	C108.670036,78.229645 108.904198,67.044380 108.857330,55.860283 
	C108.853409,54.923580 106.958809,53.994801 105.915543,53.047188 
	C105.915543,53.047188 105.885132,53.053326 106.005470,52.410862 
	C105.552574,51.219299 105.452461,49.453388 104.592224,48.924995 
	C95.966232,43.626579 87.281540,38.412601 78.438370,33.489185 
	C76.851662,32.605793 74.054436,32.371849 72.515900,33.176334 
	C63.124252,38.087143 53.902679,43.329063 44.726288,48.636734 
	C43.793579,49.176224 43.537907,50.886227 42.247272,52.105553 
	C41.712994,54.554882 40.803154,56.990288 40.711712,59.456039 
	C40.377750,68.461555 40.263142,77.476738 40.188038,86.489304 
	C40.167561,88.946594 40.741615,91.260559 44.026257,90.983200 
	C44.026257,90.983200 44.028286,90.909447 44.096420,91.414864 
z"/>
<path fill="#210846" opacity="1.000000" stroke="none" 
	d="
M23.969080,90.010239 
	C24.025627,90.452103 24.082174,90.893974 23.820026,91.659775 
	C23.501333,91.983711 23.019392,91.978409 22.748358,92.238289 
	C22.349966,94.004234 22.222609,95.510300 22.095253,97.016365 
	C21.899767,97.018990 21.704283,97.021614 21.218128,96.985107 
	C20.956654,86.284988 20.985846,75.624008 21.041895,64.497406 
	C21.381096,68.395729 21.749842,72.756561 21.989395,77.124481 
	C22.213961,81.219101 22.301807,85.321213 22.974386,89.719238 
	C23.498955,90.018448 23.969080,90.010239 23.969080,90.010239 
z"/>
<path fill="#351465" opacity="1.000000" stroke="none" 
	d="
M22.389723,96.980995 
	C22.222609,95.510300 22.349966,94.004234 22.776707,92.549194 
	C23.453775,93.052391 23.831459,93.504570 24.209143,93.956741 
	C24.436357,94.458504 24.663570,94.960258 24.883255,95.744858 
	C24.145214,96.333664 23.414703,96.639641 22.389723,96.980995 
z"/>
<path fill="#59487E" opacity="1.000000" stroke="none" 
	d="
M129.579742,46.044220 
	C129.802124,46.130039 129.865479,46.315968 129.829697,46.779373 
	C129.585968,46.870689 129.416306,46.697495 129.309845,46.491619 
	C129.270416,46.415363 129.379440,46.262344 129.579742,46.044220 
z"/>
<path fill="#28045C" opacity="1.000000" stroke="none" 
	d="
M24.075462,89.550674 
	C23.969080,90.010239 23.498955,90.018448 23.264236,90.021988 
	C23.174643,80.545441 23.319765,71.065369 23.754591,61.281395 
	C24.090141,70.348709 24.135992,79.719910 24.075462,89.550674 
z"/>
<path fill="#28045C" opacity="1.000000" stroke="none" 
	d="
M24.208155,45.247711 
	C24.455774,48.728817 24.325069,52.418118 24.119343,56.563858 
	C23.972822,53.165501 23.901327,49.310707 24.208155,45.247711 
z"/>
<path fill="#331563" opacity="1.000000" stroke="none" 
	d="
M28.835028,38.017105 
	C28.848148,38.279999 28.637781,38.543701 28.188004,38.899864 
	C28.169575,38.667522 28.390558,38.342720 28.835028,38.017105 
z"/>
<path fill="#000000" opacity="1.000000" stroke="none" 
	d="
M107.893173,89.985123 
	C97.547554,96.001083 87.295189,102.190437 76.761192,107.856155 
	C75.076431,108.762306 71.787888,107.942230 69.828445,106.858047 
	C62.526737,102.817986 55.479328,98.319580 48.309982,94.037560 
	C47.351524,93.465103 46.241093,93.147102 45.086662,92.112762 
	C44.657616,91.312653 44.342949,91.111053 44.028282,90.909447 
	C44.028286,90.909447 44.026257,90.983200 43.906601,90.597237 
	C43.191334,89.288254 42.088421,88.371040 42.077766,87.441315 
	C41.957489,76.944656 41.953983,66.445213 42.135345,55.950245 
	C42.146027,55.332184 44.008385,54.746124 45.151695,54.467468 
	C54.981510,60.094311 64.668686,65.398857 74.384583,70.719124 
	C82.535919,66.102219 90.759178,61.444569 99.330200,56.774860 
	C101.499237,55.515568 103.320511,54.268337 105.328079,53.018715 
	C105.514366,53.016319 105.885132,53.053326 105.885132,53.053326 
	C105.885132,53.053326 105.915543,53.047188 106.086433,53.415405 
	C106.837479,55.219536 107.905151,56.650448 107.919945,58.092163 
	C108.029045,68.721939 107.928047,79.353867 107.893173,89.985123 
z"/>
<path fill="#946CF6" opacity="1.000000" stroke="none" 
	d="
M98.982445,56.786922 
	C90.759178,61.444569 82.535919,66.102219 74.384583,70.719124 
	C64.668686,65.398857 54.981510,60.094311 45.023838,54.198433 
	C44.158245,53.089077 43.563148,52.571060 42.968052,52.053043 
	C43.537907,50.886227 43.793579,49.176224 44.726288,48.636734 
	C53.902679,43.329063 63.124252,38.087143 72.515900,33.176334 
	C74.054436,32.371849 76.851662,32.605793 78.438370,33.489185 
	C87.281540,38.412601 95.966232,43.626579 104.592224,48.924995 
	C105.452461,49.453388 105.552574,51.219299 105.945297,52.732094 
	C105.885132,53.053326 105.514366,53.016319 104.968674,53.037113 
	C102.609474,54.300911 100.795959,55.543919 98.982445,56.786922 
z"/>
<path fill="#E5D5FE" opacity="1.000000" stroke="none" 
	d="
M42.607662,52.079300 
	C43.563148,52.571060 44.158245,53.089077 44.881203,53.876133 
	C44.008385,54.746124 42.146027,55.332184 42.135345,55.950245 
	C41.953983,66.445213 41.957489,76.944656 42.077766,87.441315 
	C42.088421,88.371040 43.191334,89.288254 43.939030,90.579651 
	C40.741615,91.260559 40.167561,88.946594 40.188038,86.489304 
	C40.263142,77.476738 40.377750,68.461555 40.711712,59.456039 
	C40.803154,56.990288 41.712994,54.554882 42.607662,52.079300 
z"/>
<path fill="#B8A1E5" opacity="1.000000" stroke="none" 
	d="
M108.201317,89.699860 
	C107.928047,79.353867 108.029045,68.721939 107.919945,58.092163 
	C107.905151,56.650448 106.837479,55.219536 106.099968,53.422981 
	C106.958809,53.994801 108.853409,54.923580 108.857330,55.860283 
	C108.904198,67.044380 108.670036,78.229645 108.201317,89.699860 
z"/>
<path fill="#28045C" opacity="1.000000" stroke="none" 
	d="
M24.240864,93.623039 
	C23.831459,93.504570 23.453775,93.052391 23.047741,92.289314 
	C23.019392,91.978409 23.501333,91.983711 23.742281,91.987228 
	C24.079681,92.423607 24.176132,92.856468 24.240864,93.623039 
z"/>
<path fill="#E5D5FE" opacity="1.000000" stroke="none" 
	d="
M44.062351,91.162155 
	C44.342949,91.111053 44.657616,91.312653 44.903286,91.801895 
	C44.588333,91.864647 44.342377,91.639755 44.062351,91.162155 
z"/>
<path fill="#AC84F5" opacity="1.000000" stroke="none" 
	d="
M99.330200,56.774860 
	C100.795959,55.543919 102.609474,54.300911 104.782394,53.039505 
	C103.320511,54.268337 101.499237,55.515568 99.330200,56.774860 
z"/>
</svg>